# ProBuilder 6.0.4
# https://unity3d.com/unity/features/worldbuilding/probuilder
# 12/4/2024 12:40:54 PM

mtllib ./Cube.mtl
o Cube

g Cube
v -0.7000013 0.1 -0.71
v 0.7000002 0.1 -0.71
v -0.7000021 2.904223 -0.7100005
v 0.7000003 2.904223 -0.7100005
v 0.5020106 3.3 0.5778692
v -0.5020126 3.3 0.5778692
v 0.5020106 3.3 -0.4978691
v -0.5020126 3.3 -0.4978691
v 0.7000002 0.05000002 -0.71
v -0.7000013 0.05000002 -0.71
v 0.7000002 0.05000002 0.7900003
v -0.7000013 0.05000002 0.7900003
v 0.8162919 2.899803 0.9107115
v -0.8162937 2.899803 0.9107116
v 0.8162922 3.008642 0.9107121
v -0.8162942 3.008642 0.9107121
v 0.8162919 2.899803 -0.8307115
v 0.8162922 3.008642 -0.830712
v -0.8162937 2.899803 -0.8307115
v -0.8162943 3.008642 -0.830712
v 0.7000003 2.904223 0.7900006
v -0.7000021 2.904223 0.7900006
v -0.7500013 0.05000002 0.7900003
v -0.7500013 0.05000002 -0.71
v -0.7000017 0.1 -0.8999999
v -0.7000026 2.904223 -0.8
v -0.7500017 0.1 -0.8999999
v -0.7500026 2.904223 -0.8
v 0.7500002 0.05000002 -0.71
v 0.7500002 0.05000002 0.7900003
v 0.7000008 2.904223 -0.8
v 0.7000006 0.1 -0.8999999
v 0.7500008 2.904223 -0.8
v 0.7500006 0.1 -0.8999999
v 0.7000006 0.05000007 -0.8999999
v -0.7000017 0.05000007 -0.8999999
v 0.7500006 0.05000007 -0.8999999
v -0.7500013 0.1 0.8400003
v -0.7000013 0.1 0.8400003
v -0.7500013 0.05000002 0.8400003
v -0.7000013 0.05000002 0.8400003
v -0.7500017 0.05000007 -0.8999999
v 0.7000002 0.1 0.8400003
v 0.7500002 0.1 0.8400003
v 0.7000002 0.05000002 0.8400003
v 0.7500002 0.05000002 0.8400003
v -0.7500021 2.904223 -0.7100005
v -0.7500013 0.1 -0.71
v 0.7500002 0.1 -0.71
v 0.7500003 2.904223 -0.7100005
v -0.7500021 2.904223 0.7900006
v -0.7500021 2.904223 0.8400006
v -0.7000021 2.904223 0.8400006
v 0.7500002 0.1 0.7900003
v 0.7500003 2.904223 0.7900006
v 0.7000003 2.904223 0.8400006
v 0.7500003 2.904223 0.8400006
v -0.7500013 0.1 0.7900003
v -5.364418E-07 0.1 0.8400003
v -7.152557E-07 1.502111 0.8400005
v 0.7000003 1.502111 0.8400004
v -0.7000017 1.502111 0.8400004
v -8.940697E-07 2.904223 0.8400006
v -0.7500013 0.1 0.04000014
v -0.7500017 1.502111 0.04000008
v -0.7500017 1.502111 0.7900004
v -0.7500017 1.502111 -0.7100003
v -0.7500021 2.904223 0.04000002
v 0.7500002 0.1 0.04000014
v 0.7500002 1.502111 0.04000008
v 0.7500002 1.502111 -0.7100003
v 0.7500002 1.502111 0.7900004
v 0.7500003 2.904223 0.04000002

vt 1.200001 0.6000001
vt -0.2000002 0.6000001
vt 1.200002 3.404223
vt -0.2000003 3.404223
vt -0.002010643 1.077869
vt 1.002013 1.077869
vt -0.002010643 0.002130926
vt 1.002013 0.002130926
vt 1.2 -0.21
vt -0.2000013 -0.21
vt 1.2 1.29
vt -0.2000013 1.29
vt 1.316292 3.399808
vt -0.3162938 3.399808
vt 1.316292 3.508646
vt -0.3162943 3.508646
vt 1.330712 3.399805
vt -0.4107115 3.399805
vt 1.330712 3.508644
vt -0.4107121 3.508644
vt 1.410712 3.399807
vt -0.3307115 3.399807
vt 1.410712 3.508645
vt -0.330712 3.508645
vt -0.2000021 -0.1032588
vt 1.2 -0.1032588
vt -0.3162937 -0.2240507
vt 1.316292 -0.2240508
vt -1.375376 0.002130926
vt -1.375376 1.077869
vt -0.9468175 -0.330712
vt -0.9468176 1.410712
vt -0.002010643 2.298957
vt 1.002013 2.298957
vt -0.3162922 1.856607
vt 1.316294 1.856607
vt 1.089196 -0.2100005
vt 1.089196 1.290001
vt 1.205572 -0.3307115
vt 1.205572 1.410712
vt 2.375378 1.077869
vt 2.375378 0.002130926
vt 1.946819 1.410712
vt 1.946819 -0.330712
vt 1.2 1.183205
vt -0.2000021 1.183205
vt 1.316292 1.303997
vt -0.3162937 1.303997
vt 1.002013 -1.238762
vt -0.002010643 -1.238762
vt 1.316294 -0.7964116
vt -0.3162922 -0.7964116
vt -0.08919817 1.290001
vt -0.08919817 -0.2100005
vt -0.2055738 1.410712
vt -0.2055738 -0.3307115
vt -0.2500013 1.29
vt -0.2500013 -0.21
vt 1.200002 0.5678625
vt 1.200003 3.373868
vt 1.250002 0.5678625
vt 1.250003 3.373868
vt 1.25 -0.21
vt 1.25 1.29
vt -0.2000008 3.373868
vt -0.2000006 0.5678625
vt -0.2500008 3.373868
vt -0.2500006 0.5678625
vt -0.2000006 0.5500001
vt 1.200002 0.5500001
vt -0.2500006 0.6
vt -0.2500006 0.5500001
vt 1.250002 0.6
vt 1.250002 0.5500001
vt 1.200002 -0.2100005
vt 1.250002 -0.2100005
vt 1.200003 -0.3
vt 1.250003 -0.3
vt -0.2000017 -0.3999999
vt 1.200001 -0.3999999
vt -0.2100014 0.6
vt -0.2100014 0.55
vt -0.4000013 0.6
vt -0.4000013 0.5500001
vt -0.2500017 -0.3999999
vt 1.210001 0.6000002
vt 1.210002 3.404223
vt 1.400001 0.6000002
vt 1.300001 3.404223
vt 1.250001 -0.3999999
vt 1.210001 0.55
vt 1.400001 0.5500001
vt -0.2100047 3.404223
vt -0.3000042 3.404223
vt -0.2500003 -0.2100005
vt -0.2000003 -0.2100005
vt -0.2500008 -0.3
vt -0.2000008 -0.3
vt -0.2000013 1.34
vt -0.2500013 1.34
vt 1.250002 1.340001
vt 1.200002 1.340001
vt -0.2900003 0.6
vt -0.2900003 0.55
vt -0.3400003 0.6
vt -0.3400003 0.55
vt 1.29 0.55
vt 1.29 0.6
vt 1.34 0.55
vt 1.34 0.6
vt 0.4999995 0.6000001
vt 0.4999993 2.002111
vt 1.2 2.002111
vt -0.2000017 2.002111
vt 0.4999991 3.404223
vt 0.5400001 0.6000003
vt 0.5400001 2.002112
vt 1.29 2.002112
vt -0.21 0.6000003
vt -0.2100003 2.002112
vt 0.54 3.404223
vt 1.290001 3.404223
vt 0.4599999 0.6
vt 0.4599999 2.002111
vt 1.21 2.002111
vt -0.2900004 2.002111
vt -0.2900006 3.404223
vt 0.46 3.404223
vt -0.2500023 3.404223
vt 1.250002 0.54
vt 1.25 3.404223
vt -0.2500003 0.54
vt -0.21 0.55
vt -0.3400007 3.404223
vt 0.5000009 1.340001
vt 1.340001 3.404223

vn 0 -1.912978E-07 -1
vn 0 1 0
vn 0 -1 0
vn 3.650935E-08 -4.928785E-06 1
vn 1 -2.190571E-06 0
vn -1 -4.381142E-06 0
vn 0 -0.9993303 0.03659024
vn -0.6798561 0.7333456 0
vn 0 0.7524415 -0.658659
vn -0.03797878 -0.9992785 0
vn 0.6798561 0.7333455 0
vn 0 -0.9993303 -0.03659024
vn 0 0.7524415 0.6586591
vn 0.03797878 -0.9992785 0
vn 0 0.0356378 -0.9993648

usemtl ProBuilderDefault
f 62/114/4 38/71/4 39/2/4
f 52/129/4 38/71/4 62/114/4
f 53/4/4 52/129/4 62/114/4
f 3/75/2 47/76/2 68/130/2
f 22/11/2 3/75/2 68/130/2
f 22/11/2 68/130/2 51/64/2
f 57/131/4 56/3/4 61/113/4
f 57/131/4 61/113/4 44/73/4
f 61/113/4 43/1/4 44/73/4
f 73/132/2 50/95/2 4/96/2
f 21/12/2 73/132/2 4/96/2
f 21/12/2 55/57/2 73/132/2
f 59/111/4 45/70/4 43/1/4
f 45/70/4 59/111/4 41/69/4
f 59/111/4 39/2/4 41/69/4
f 64/116/6 23/107/6 58/108/6
f 23/107/6 64/116/6 24/133/6
f 64/116/6 48/119/6 24/133/6
f 29/91/5 49/86/5 69/123/5
f 29/91/5 69/123/5 30/104/5
f 54/103/5 30/104/5 69/123/5
f 47/93/6 28/94/6 67/120/6
f 67/120/6 27/83/6 48/81/6
f 28/94/6 27/83/6 67/120/6
f 71/125/5 34/88/5 33/89/5
f 49/86/5 34/88/5 71/125/5
f 71/125/5 33/89/5 50/87/5
f 44/105/5 54/103/5 72/126/5
f 44/105/5 72/126/5 57/134/5
f 72/126/5 55/127/5 57/134/5
f 63/135/2 22/11/2 53/102/2
f 22/11/2 63/135/2 21/12/2
f 63/135/2 56/99/2 21/12/2
f 52/136/6 51/122/6 66/118/6
f 52/136/6 66/118/6 38/110/6
f 66/118/6 58/108/6 38/110/6
f 4/4/1 2/2/1 1/1/1
f 1/1/1 3/3/1 4/4/1
f 8/8/2 6/6/2 5/5/2
f 5/5/2 7/7/2 8/8/2
f 12/12/3 10/10/3 9/9/3
f 9/9/3 11/11/3 12/12/3
f 16/16/4 14/14/4 13/13/4
f 13/13/4 15/15/4 16/16/4
f 15/20/5 13/18/5 17/17/5
f 17/17/5 18/19/5 15/20/5
f 20/24/6 19/22/6 14/21/6
f 14/21/6 16/23/6 20/24/6
f 18/16/1 17/14/1 19/13/1
f 19/13/1 20/15/1 18/16/1
f 17/28/7 4/26/7 3/25/7
f 3/25/7 19/27/7 17/28/7
f 16/32/8 6/30/8 8/29/8
f 8/29/8 20/31/8 16/32/8
f 20/36/9 8/34/9 7/33/9
f 7/33/9 18/35/9 20/36/9
f 13/40/10 21/38/10 4/37/10
f 4/37/10 17/39/10 13/40/10
f 18/44/11 7/42/11 5/41/11
f 5/41/11 15/43/11 18/44/11
f 14/48/12 22/46/12 21/45/12
f 21/45/12 13/47/12 14/48/12
f 15/52/13 5/50/13 6/49/13
f 6/49/13 16/51/13 15/52/13
f 19/56/14 3/54/14 22/53/14
f 22/53/14 14/55/14 19/56/14
f 24/58/3 10/10/3 12/12/3
f 12/12/3 23/57/3 24/58/3
f 28/62/15 26/60/15 25/59/15
f 25/59/15 27/61/15 28/62/15
f 30/64/3 11/11/3 9/9/3
f 9/9/3 29/63/3 30/64/3
f 34/68/15 32/66/15 31/65/15
f 31/65/15 33/67/15 34/68/15
f 36/70/1 25/1/1 32/2/1
f 32/2/1 35/69/1 36/70/1
f 35/69/1 32/2/1 34/71/1
f 34/71/1 37/72/1 35/69/1
f 41/69/4 39/2/4 38/71/4
f 38/71/4 40/72/4 41/69/4
f 42/74/1 27/73/1 25/1/1
f 25/1/1 36/70/1 42/74/1
f 46/74/4 44/73/4 43/1/4
f 43/1/4 45/70/4 46/74/4
f 28/78/2 47/76/2 3/75/2
f 3/75/2 26/77/2 28/78/2
f 35/80/3 9/9/3 10/10/3
f 10/10/3 36/79/3 35/80/3
f 42/84/6 24/82/6 48/81/6
f 48/81/6 27/83/6 42/84/6
f 36/79/3 10/10/3 24/58/3
f 24/58/3 42/85/3 36/79/3
f 26/89/5 3/87/5 1/86/5
f 1/86/5 25/88/5 26/89/5
f 25/80/2 1/9/2 2/10/2
f 2/10/2 32/79/2 25/80/2
f 37/90/3 29/63/3 9/9/3
f 9/9/3 35/80/3 37/90/3
f 34/88/5 49/86/5 29/91/5
f 29/91/5 37/92/5 34/88/5
f 32/83/6 2/81/6 4/93/6
f 4/93/6 31/94/6 32/83/6
f 31/98/2 4/96/2 50/95/2
f 50/95/2 33/97/2 31/98/2
f 40/100/3 23/57/3 12/12/3
f 12/12/3 41/99/3 40/100/3
f 53/102/2 22/11/2 51/64/2
f 51/64/2 52/101/2 53/102/2
f 46/106/5 30/104/5 54/103/5
f 54/103/5 44/105/5 46/106/5
f 41/99/3 12/12/3 11/11/3
f 11/11/3 45/102/3 41/99/3
f 57/100/2 55/57/2 21/12/2
f 21/12/2 56/99/2 57/100/2
f 45/102/3 11/11/3 30/64/3
f 30/64/3 46/101/3 45/102/3
f 38/110/6 58/108/6 23/107/6
f 23/107/6 40/109/6 38/110/6
f 59/111/4 43/1/4 61/113/4
f 61/113/4 60/112/4 59/111/4
f 62/114/4 39/2/4 59/111/4
f 59/111/4 60/112/4 62/114/4
f 53/4/4 62/114/4 60/112/4
f 60/112/4 63/115/4 53/4/4
f 60/112/4 61/113/4 56/3/4
f 56/3/4 63/115/4 60/112/4
f 65/117/6 64/116/6 58/108/6
f 58/108/6 66/118/6 65/117/6
f 67/120/6 48/119/6 64/116/6
f 64/116/6 65/117/6 67/120/6
f 47/93/6 67/120/6 65/117/6
f 65/117/6 68/121/6 47/93/6
f 68/121/6 65/117/6 66/118/6
f 66/118/6 51/122/6 68/121/6
f 69/123/5 49/86/5 71/125/5
f 71/125/5 70/124/5 69/123/5
f 69/123/5 70/124/5 72/126/5
f 72/126/5 54/103/5 69/123/5
f 70/124/5 73/128/5 55/127/5
f 55/127/5 72/126/5 70/124/5
f 70/124/5 71/125/5 50/87/5
f 50/87/5 73/128/5 70/124/5

